<?xml version="1.0" encoding="UTF-8"?>
<!DOCTYPE X3D PUBLIC "ISO//Web3D//DTD X3D 3.2//EN" "http://www.web3d.org/specifications/x3d-3.2.dtd">
<X3D profile="Interchange" version="3.2" xmlns:xsd="http://www.w3.org/2001/XMLSchema-instance" xsd:noNamespaceSchemaLocation="http://www.web3d.org/specifications/x3d-3.2.xsd">
  <!--
  # File generated by ImageToStl.com - Free Image and 3D model conversion tools
  -->
  <Scene>
    <Shape>
      <IndexedFaceSet coordIndex="0 1 2 -1 1 3 2 -1 4 5 6 -1 5 7 6 -1 4 6 2 -1 6 0 2 -1 7 5 1 -1 5 3 1 -1 6 7 0 -1 7 1 0 -1 2 3 4 -1 3 5 4" colorPerVertex="false" colorIndex="0 0 0 0 0 0 0 0 0 0 0 0 " normalPerVertex="false">
        <Coordinate point="26 -14 32 26 -14 12 26 20 32 26 20 12 -19 20 32 -19 20 12 -19 -14 32 -19 -14 12"/>
        <Color color="0.91373 0.11373 0.17647 "/>
      </IndexedFaceSet>
    </Shape>
    <Shape>
      <IndexedFaceSet coordIndex="0 1 2 -1 1 3 2 -1 4 5 6 -1 5 7 6 -1 4 6 2 -1 6 0 2 -1 7 5 1 -1 5 3 1 -1 6 7 0 -1 7 1 0 -1 2 3 4 -1 3 5 4" colorPerVertex="false" colorIndex="0 0 0 0 0 0 0 0 0 0 0 0 " normalPerVertex="false">
        <Coordinate point="-19 -14 21 -19 -14 12 -19 20 21 -19 20 12 -39 20 21 -39 20 12 -39 -14 21 -39 -14 12"/>
        <Color color="0.91373 0.11373 0.17647 "/>
      </IndexedFaceSet>
    </Shape>
    <Shape>
      <IndexedFaceSet coordIndex="0 1 2 -1 3 0 2 -1 4 3 2 -1 5 4 2 -1 6 5 2 -1 7 6 2 -1 8 7 2 -1 9 8 2 -1 10 9 2 -1 11 10 2 -1 12 11 2 -1 13 12 2 -1 14 13 2 -1 15 14 2 -1 16 15 2 -1 17 16 2 -1 18 17 2 -1 19 18 2 -1 20 19 2 -1 21 20 2 -1 22 21 2 -1 23 22 2 -1 24 23 2 -1 25 24 2 -1 26 25 2 -1 27 26 2 -1 28 27 2 -1 29 28 2 -1 30 29 2 -1 31 30 2 -1 32 31 2 -1 33 32 2 -1 34 33 2 -1 35 34 2 -1 36 35 2 -1 37 36 2 -1 38 37 2 -1 39 38 2 -1 40 39 2 -1 41 40 2 -1 42 41 2 -1 43 42 2 -1 44 43 2 -1 45 44 2 -1 46 45 2 -1 47 46 2 -1 48 47 2 -1 1 48 2 -1 49 50 51 -1 50 52 51 -1 52 53 51 -1 53 54 51 -1 54 55 51 -1 55 56 51 -1 56 57 51 -1 57 58 51 -1 58 59 51 -1 59 60 51 -1 60 61 51 -1 61 62 51 -1 62 63 51 -1 63 64 51 -1 64 65 51 -1 65 66 51 -1 66 67 51 -1 67 68 51 -1 68 69 51 -1 69 70 51 -1 70 71 51 -1 71 72 51 -1 72 73 51 -1 73 74 51 -1 74 75 51 -1 75 76 51 -1 76 77 51 -1 77 78 51 -1 78 79 51 -1 79 80 51 -1 80 81 51 -1 81 82 51 -1 82 83 51 -1 83 84 51 -1 84 85 51 -1 85 86 51 -1 86 87 51 -1 87 88 51 -1 88 89 51 -1 89 90 51 -1 90 91 51 -1 91 92 51 -1 92 93 51 -1 93 94 51 -1 94 95 51 -1 95 96 51 -1 96 97 51 -1 97 49 51 -1 1 0 0 -1 0 3 3 -1 3 4 4 -1 4 5 5 -1 5 6 6 -1 6 7 7 -1 7 8 8 -1 8 9 9 -1 9 10 10 -1 10 11 11 -1 11 12 12 -1 12 13 13 -1 13 14 14 -1 14 15 15 -1 15 16 16 -1 16 17 17 -1 17 18 18 -1 18 19 19 -1 19 20 20 -1 20 21 21 -1 21 22 22 -1 22 23 23 -1 23 24 24 -1 24 25 25 -1 25 26 26 -1 26 27 27 -1 27 28 28 -1 28 29 29 -1 29 30 30 -1 30 31 31 -1 31 32 32 -1 32 33 33 -1 33 34 34 -1 34 35 35 -1 35 36 36 -1 36 37 37 -1 37 38 38 -1 38 39 39 -1 39 40 40 -1 40 41 41 -1 41 42 42 -1 42 43 43 -1 43 44 44 -1 44 45 45 -1 45 46 46 -1 46 47 47 -1 47 48 48 -1 48 1 1 -1 1 0 50 -1 1 50 49 -1 0 3 52 -1 0 52 50 -1 3 4 53 -1 3 53 52 -1 4 5 54 -1 4 54 53 -1 5 6 55 -1 5 55 54 -1 6 7 56 -1 6 56 55 -1 7 8 57 -1 7 57 56 -1 8 9 58 -1 8 58 57 -1 9 10 59 -1 9 59 58 -1 10 11 60 -1 10 60 59 -1 11 12 61 -1 11 61 60 -1 12 13 62 -1 12 62 61 -1 13 14 63 -1 13 63 62 -1 14 15 64 -1 14 64 63 -1 15 16 65 -1 15 65 64 -1 16 17 66 -1 16 66 65 -1 17 18 67 -1 17 67 66 -1 18 19 68 -1 18 68 67 -1 19 20 69 -1 19 69 68 -1 20 21 70 -1 20 70 69 -1 21 22 71 -1 21 71 70 -1 22 23 72 -1 22 72 71 -1 23 24 73 -1 23 73 72 -1 24 25 74 -1 24 74 73 -1 25 26 75 -1 25 75 74 -1 26 27 76 -1 26 76 75 -1 27 28 77 -1 27 77 76 -1 28 29 78 -1 28 78 77 -1 29 30 79 -1 29 79 78 -1 30 31 80 -1 30 80 79 -1 31 32 81 -1 31 81 80 -1 32 33 82 -1 32 82 81 -1 33 34 83 -1 33 83 82 -1 34 35 84 -1 34 84 83 -1 35 36 85 -1 35 85 84 -1 36 37 86 -1 36 86 85 -1 37 38 87 -1 37 87 86 -1 38 39 88 -1 38 88 87 -1 39 40 89 -1 39 89 88 -1 40 41 90 -1 40 90 89 -1 41 42 91 -1 41 91 90 -1 42 43 92 -1 42 92 91 -1 43 44 93 -1 43 93 92 -1 44 45 94 -1 44 94 93 -1 45 46 95 -1 45 95 94 -1 46 47 96 -1 46 96 95 -1 47 48 97 -1 47 97 96 -1 48 1 49 -1 48 49 97 -1 49 50 50 -1 50 52 52 -1 52 53 53 -1 53 54 54 -1 54 55 55 -1 55 56 56 -1 56 57 57 -1 57 58 58 -1 58 59 59 -1 59 60 60 -1 60 61 61 -1 61 62 62 -1 62 63 63 -1 63 64 64 -1 64 65 65 -1 65 66 66 -1 66 67 67 -1 67 68 68 -1 68 69 69 -1 69 70 70 -1 70 71 71 -1 71 72 72 -1 72 73 73 -1 73 74 74 -1 74 75 75 -1 75 76 76 -1 76 77 77 -1 77 78 78 -1 78 79 79 -1 79 80 80 -1 80 81 81 -1 81 82 82 -1 82 83 83 -1 83 84 84 -1 84 85 85 -1 85 86 86 -1 86 87 87 -1 87 88 88 -1 88 89 89 -1 89 90 90 -1 90 91 91 -1 91 92 92 -1 92 93 93 -1 93 94 94 -1 94 95 95 -1 95 96 96 -1 96 97 97 -1 97 49 49" colorPerVertex="false" colorIndex="1 1 1 1 1 1 1 1 1 1 1 1 1 1 1 1 1 1 1 1 1 1 1 1 1 1 1 1 1 1 1 1 1 1 1 1 1 1 1 1 1 1 1 1 1 1 1 1 1 1 1 1 1 1 1 1 1 1 1 1 1 1 1 1 1 1 1 1 1 1 1 1 1 1 1 1 1 1 1 1 1 1 1 1 1 1 1 1 1 1 1 1 1 1 1 1 1 1 1 1 1 1 1 1 1 1 1 1 1 1 1 1 1 1 1 1 1 1 1 1 1 1 1 1 1 1 1 1 1 1 1 1 1 1 1 1 1 1 1 1 1 1 1 1 1 1 1 1 1 1 1 1 1 1 1 1 1 1 1 1 1 1 1 1 1 1 1 1 1 1 1 1 1 1 1 1 1 1 1 1 1 1 1 1 1 1 1 1 1 1 1 1 1 1 1 1 1 1 1 1 1 1 1 1 1 1 1 1 1 1 1 1 1 1 1 1 1 1 1 1 1 1 1 1 1 1 1 1 1 1 1 1 1 1 1 1 1 1 1 1 1 1 1 1 1 1 1 1 1 1 1 1 1 1 1 1 1 1 1 1 1 1 1 1 1 1 1 1 1 1 1 1 1 1 1 1 1 1 1 1 1 1 1 1 1 1 1 1 " normalPerVertex="false">
        <Coordinate point="19.3484 16 13.9401 18.5 16 14 18.5 16 7 20.1823 16 13.7615 20.9874 16 13.4672 21.75 16 13.0622 22.4569 16 12.5535 23.0962 16 11.9497 23.6568 16 11.2613 24.1292 16 10.5 24.5052 16 9.6788 24.7785 16 8.8117 24.9444 16 7.9137 25 16 7 24.9444 16 6.0863 24.7785 16 5.1883 24.5052 16 4.3212 24.1292 16 3.5 23.6568 16 2.7387 23.0962 16 2.0503 22.4569 16 1.4465 21.75 16 0.9378 20.9874 16 0.5328 20.1823 16 0.2385 19.3484 16 0.0599 18.5 16 0 17.6516 16 0.0599 16.8177 16 0.2385 16.0126 16 0.5328 15.25 16 0.9378 14.5431 16 1.4465 13.9038 16 2.0503 13.3432 16 2.7387 12.8708 16 3.5 12.4948 16 4.3212 12.2215 16 5.1883 12.0556 16 6.0863 12 16 7 12.0556 16 7.9137 12.2215 16 8.8117 12.4948 16 9.6788 12.8708 16 10.5 13.3432 16 11.2613 13.9038 16 11.9497 14.5431 16 12.5535 15.25 16 13.0622 16.0126 16 13.4672 16.8177 16 13.7615 17.6516 16 13.9401 18.5 22 14 19.3484 22 13.9401 18.5 22 7 20.1823 22 13.7615 20.9874 22 13.4672 21.75 22 13.0622 22.4569 22 12.5535 23.0962 22 11.9497 23.6568 22 11.2613 24.1292 22 10.5 24.5052 22 9.6788 24.7785 22 8.8117 24.9444 22 7.9137 25 22 7 24.9444 22 6.0863 24.7785 22 5.1883 24.5052 22 4.3212 24.1292 22 3.5 23.6568 22 2.7387 23.0962 22 2.0503 22.4569 22 1.4465 21.75 22 0.9378 20.9874 22 0.5328 20.1823 22 0.2385 19.3484 22 0.0599 18.5 22 0 17.6516 22 0.0599 16.8177 22 0.2385 16.0126 22 0.5328 15.25 22 0.9378 14.5431 22 1.4465 13.9038 22 2.0503 13.3432 22 2.7387 12.8708 22 3.5 12.4948 22 4.3212 12.2215 22 5.1883 12.0556 22 6.0863 12 22 7 12.0556 22 7.9137 12.2215 22 8.8117 12.4948 22 9.6788 12.8708 22 10.5 13.3432 22 11.2613 13.9038 22 11.9497 14.5431 22 12.5535 15.25 22 13.0622 16.0126 22 13.4672 16.8177 22 13.7615 17.6516 22 13.9401"/>
        <Color color="0.91373 0.11373 0.17647 0.16863 0.18039 0.19216 "/>
      </IndexedFaceSet>
    </Shape>
    <Shape>
      <IndexedFaceSet coordIndex="0 1 2 -1 3 0 2 -1 4 3 2 -1 5 4 2 -1 6 5 2 -1 7 6 2 -1 8 7 2 -1 9 8 2 -1 10 9 2 -1 11 10 2 -1 12 11 2 -1 13 12 2 -1 14 13 2 -1 15 14 2 -1 16 15 2 -1 17 16 2 -1 18 17 2 -1 19 18 2 -1 20 19 2 -1 21 20 2 -1 22 21 2 -1 23 22 2 -1 24 23 2 -1 25 24 2 -1 26 25 2 -1 27 26 2 -1 28 27 2 -1 29 28 2 -1 30 29 2 -1 31 30 2 -1 32 31 2 -1 33 32 2 -1 34 33 2 -1 35 34 2 -1 36 35 2 -1 37 36 2 -1 38 37 2 -1 39 38 2 -1 40 39 2 -1 41 40 2 -1 42 41 2 -1 43 42 2 -1 44 43 2 -1 45 44 2 -1 46 45 2 -1 47 46 2 -1 48 47 2 -1 1 48 2 -1 49 50 51 -1 50 52 51 -1 52 53 51 -1 53 54 51 -1 54 55 51 -1 55 56 51 -1 56 57 51 -1 57 58 51 -1 58 59 51 -1 59 60 51 -1 60 61 51 -1 61 62 51 -1 62 63 51 -1 63 64 51 -1 64 65 51 -1 65 66 51 -1 66 67 51 -1 67 68 51 -1 68 69 51 -1 69 70 51 -1 70 71 51 -1 71 72 51 -1 72 73 51 -1 73 74 51 -1 74 75 51 -1 75 76 51 -1 76 77 51 -1 77 78 51 -1 78 79 51 -1 79 80 51 -1 80 81 51 -1 81 82 51 -1 82 83 51 -1 83 84 51 -1 84 85 51 -1 85 86 51 -1 86 87 51 -1 87 88 51 -1 88 89 51 -1 89 90 51 -1 90 91 51 -1 91 92 51 -1 92 93 51 -1 93 94 51 -1 94 95 51 -1 95 96 51 -1 96 97 51 -1 97 49 51 -1 1 0 0 -1 0 3 3 -1 3 4 4 -1 4 5 5 -1 5 6 6 -1 6 7 7 -1 7 8 8 -1 8 9 9 -1 9 10 10 -1 10 11 11 -1 11 12 12 -1 12 13 13 -1 13 14 14 -1 14 15 15 -1 15 16 16 -1 16 17 17 -1 17 18 18 -1 18 19 19 -1 19 20 20 -1 20 21 21 -1 21 22 22 -1 22 23 23 -1 23 24 24 -1 24 25 25 -1 25 26 26 -1 26 27 27 -1 27 28 28 -1 28 29 29 -1 29 30 30 -1 30 31 31 -1 31 32 32 -1 32 33 33 -1 33 34 34 -1 34 35 35 -1 35 36 36 -1 36 37 37 -1 37 38 38 -1 38 39 39 -1 39 40 40 -1 40 41 41 -1 41 42 42 -1 42 43 43 -1 43 44 44 -1 44 45 45 -1 45 46 46 -1 46 47 47 -1 47 48 48 -1 48 1 1 -1 1 0 50 -1 1 50 49 -1 0 3 52 -1 0 52 50 -1 3 4 53 -1 3 53 52 -1 4 5 54 -1 4 54 53 -1 5 6 55 -1 5 55 54 -1 6 7 56 -1 6 56 55 -1 7 8 57 -1 7 57 56 -1 8 9 58 -1 8 58 57 -1 9 10 59 -1 9 59 58 -1 10 11 60 -1 10 60 59 -1 11 12 61 -1 11 61 60 -1 12 13 62 -1 12 62 61 -1 13 14 63 -1 13 63 62 -1 14 15 64 -1 14 64 63 -1 15 16 65 -1 15 65 64 -1 16 17 66 -1 16 66 65 -1 17 18 67 -1 17 67 66 -1 18 19 68 -1 18 68 67 -1 19 20 69 -1 19 69 68 -1 20 21 70 -1 20 70 69 -1 21 22 71 -1 21 71 70 -1 22 23 72 -1 22 72 71 -1 23 24 73 -1 23 73 72 -1 24 25 74 -1 24 74 73 -1 25 26 75 -1 25 75 74 -1 26 27 76 -1 26 76 75 -1 27 28 77 -1 27 77 76 -1 28 29 78 -1 28 78 77 -1 29 30 79 -1 29 79 78 -1 30 31 80 -1 30 80 79 -1 31 32 81 -1 31 81 80 -1 32 33 82 -1 32 82 81 -1 33 34 83 -1 33 83 82 -1 34 35 84 -1 34 84 83 -1 35 36 85 -1 35 85 84 -1 36 37 86 -1 36 86 85 -1 37 38 87 -1 37 87 86 -1 38 39 88 -1 38 88 87 -1 39 40 89 -1 39 89 88 -1 40 41 90 -1 40 90 89 -1 41 42 91 -1 41 91 90 -1 42 43 92 -1 42 92 91 -1 43 44 93 -1 43 93 92 -1 44 45 94 -1 44 94 93 -1 45 46 95 -1 45 95 94 -1 46 47 96 -1 46 96 95 -1 47 48 97 -1 47 97 96 -1 48 1 49 -1 48 49 97 -1 49 50 50 -1 50 52 52 -1 52 53 53 -1 53 54 54 -1 54 55 55 -1 55 56 56 -1 56 57 57 -1 57 58 58 -1 58 59 59 -1 59 60 60 -1 60 61 61 -1 61 62 62 -1 62 63 63 -1 63 64 64 -1 64 65 65 -1 65 66 66 -1 66 67 67 -1 67 68 68 -1 68 69 69 -1 69 70 70 -1 70 71 71 -1 71 72 72 -1 72 73 73 -1 73 74 74 -1 74 75 75 -1 75 76 76 -1 76 77 77 -1 77 78 78 -1 78 79 79 -1 79 80 80 -1 80 81 81 -1 81 82 82 -1 82 83 83 -1 83 84 84 -1 84 85 85 -1 85 86 86 -1 86 87 87 -1 87 88 88 -1 88 89 89 -1 89 90 90 -1 90 91 91 -1 91 92 92 -1 92 93 93 -1 93 94 94 -1 94 95 95 -1 95 96 96 -1 96 97 97 -1 97 49 49" colorPerVertex="false" colorIndex="1 1 1 1 1 1 1 1 1 1 1 1 1 1 1 1 1 1 1 1 1 1 1 1 1 1 1 1 1 1 1 1 1 1 1 1 1 1 1 1 1 1 1 1 1 1 1 1 1 1 1 1 1 1 1 1 1 1 1 1 1 1 1 1 1 1 1 1 1 1 1 1 1 1 1 1 1 1 1 1 1 1 1 1 1 1 1 1 1 1 1 1 1 1 1 1 1 1 1 1 1 1 1 1 1 1 1 1 1 1 1 1 1 1 1 1 1 1 1 1 1 1 1 1 1 1 1 1 1 1 1 1 1 1 1 1 1 1 1 1 1 1 1 1 1 1 1 1 1 1 1 1 1 1 1 1 1 1 1 1 1 1 1 1 1 1 1 1 1 1 1 1 1 1 1 1 1 1 1 1 1 1 1 1 1 1 1 1 1 1 1 1 1 1 1 1 1 1 1 1 1 1 1 1 1 1 1 1 1 1 1 1 1 1 1 1 1 1 1 1 1 1 1 1 1 1 1 1 1 1 1 1 1 1 1 1 1 1 1 1 1 1 1 1 1 1 1 1 1 1 1 1 1 1 1 1 1 1 1 1 1 1 1 1 1 1 1 1 1 1 1 1 1 1 1 1 1 1 1 1 1 1 1 1 1 1 1 1 " normalPerVertex="false">
        <Coordinate point="-26.6516 16 13.9401 -27.5 16 14 -27.5 16 7 -25.8177 16 13.7615 -25.0126 16 13.4672 -24.25 16 13.0622 -23.5431 16 12.5535 -22.9038 16 11.9497 -22.3432 16 11.2613 -21.8708 16 10.5 -21.4948 16 9.6788 -21.2215 16 8.8117 -21.0556 16 7.9137 -21 16 7 -21.0556 16 6.0863 -21.2215 16 5.1883 -21.4948 16 4.3212 -21.8708 16 3.5 -22.3432 16 2.7387 -22.9038 16 2.0503 -23.5431 16 1.4465 -24.25 16 0.9378 -25.0126 16 0.5328 -25.8177 16 0.2385 -26.6516 16 0.0599 -27.5 16 0 -28.3484 16 0.0599 -29.1823 16 0.2385 -29.9874 16 0.5328 -30.75 16 0.9378 -31.4569 16 1.4465 -32.0962 16 2.0503 -32.6568 16 2.7387 -33.1292 16 3.5 -33.5052 16 4.3212 -33.7785 16 5.1883 -33.9444 16 6.0863 -34 16 7 -33.9444 16 7.9137 -33.7785 16 8.8117 -33.5052 16 9.6788 -33.1292 16 10.5 -32.6568 16 11.2613 -32.0962 16 11.9497 -31.4569 16 12.5535 -30.75 16 13.0622 -29.9874 16 13.4672 -29.1823 16 13.7615 -28.3484 16 13.9401 -27.5 22 14 -26.6516 22 13.9401 -27.5 22 7 -25.8177 22 13.7615 -25.0126 22 13.4672 -24.25 22 13.0622 -23.5431 22 12.5535 -22.9038 22 11.9497 -22.3432 22 11.2613 -21.8708 22 10.5 -21.4948 22 9.6788 -21.2215 22 8.8117 -21.0556 22 7.9137 -21 22 7 -21.0556 22 6.0863 -21.2215 22 5.1883 -21.4948 22 4.3212 -21.8708 22 3.5 -22.3432 22 2.7387 -22.9038 22 2.0503 -23.5431 22 1.4465 -24.25 22 0.9378 -25.0126 22 0.5328 -25.8177 22 0.2385 -26.6516 22 0.0599 -27.5 22 0 -28.3484 22 0.0599 -29.1823 22 0.2385 -29.9874 22 0.5328 -30.75 22 0.9378 -31.4569 22 1.4465 -32.0962 22 2.0503 -32.6568 22 2.7387 -33.1292 22 3.5 -33.5052 22 4.3212 -33.7785 22 5.1883 -33.9444 22 6.0863 -34 22 7 -33.9444 22 7.9137 -33.7785 22 8.8117 -33.5052 22 9.6788 -33.1292 22 10.5 -32.6568 22 11.2613 -32.0962 22 11.9497 -31.4569 22 12.5535 -30.75 22 13.0622 -29.9874 22 13.4672 -29.1823 22 13.7615 -28.3484 22 13.9401"/>
        <Color color="0.91373 0.11373 0.17647 0.16863 0.18039 0.19216 "/>
      </IndexedFaceSet>
    </Shape>
    <Shape>
      <IndexedFaceSet coordIndex="0 1 2 -1 3 0 2 -1 4 3 2 -1 5 4 2 -1 6 5 2 -1 7 6 2 -1 8 7 2 -1 9 8 2 -1 10 9 2 -1 11 10 2 -1 12 11 2 -1 13 12 2 -1 14 13 2 -1 15 14 2 -1 16 15 2 -1 17 16 2 -1 18 17 2 -1 19 18 2 -1 20 19 2 -1 21 20 2 -1 22 21 2 -1 23 22 2 -1 24 23 2 -1 25 24 2 -1 26 25 2 -1 27 26 2 -1 28 27 2 -1 29 28 2 -1 30 29 2 -1 31 30 2 -1 32 31 2 -1 33 32 2 -1 34 33 2 -1 35 34 2 -1 36 35 2 -1 37 36 2 -1 38 37 2 -1 39 38 2 -1 40 39 2 -1 41 40 2 -1 42 41 2 -1 43 42 2 -1 44 43 2 -1 45 44 2 -1 46 45 2 -1 47 46 2 -1 48 47 2 -1 1 48 2 -1 49 50 51 -1 50 52 51 -1 52 53 51 -1 53 54 51 -1 54 55 51 -1 55 56 51 -1 56 57 51 -1 57 58 51 -1 58 59 51 -1 59 60 51 -1 60 61 51 -1 61 62 51 -1 62 63 51 -1 63 64 51 -1 64 65 51 -1 65 66 51 -1 66 67 51 -1 67 68 51 -1 68 69 51 -1 69 70 51 -1 70 71 51 -1 71 72 51 -1 72 73 51 -1 73 74 51 -1 74 75 51 -1 75 76 51 -1 76 77 51 -1 77 78 51 -1 78 79 51 -1 79 80 51 -1 80 81 51 -1 81 82 51 -1 82 83 51 -1 83 84 51 -1 84 85 51 -1 85 86 51 -1 86 87 51 -1 87 88 51 -1 88 89 51 -1 89 90 51 -1 90 91 51 -1 91 92 51 -1 92 93 51 -1 93 94 51 -1 94 95 51 -1 95 96 51 -1 96 97 51 -1 97 49 51 -1 1 0 0 -1 0 3 3 -1 3 4 4 -1 4 5 5 -1 5 6 6 -1 6 7 7 -1 7 8 8 -1 8 9 9 -1 9 10 10 -1 10 11 11 -1 11 12 12 -1 12 13 13 -1 13 14 14 -1 14 15 15 -1 15 16 16 -1 16 17 17 -1 17 18 18 -1 18 19 19 -1 19 20 20 -1 20 21 21 -1 21 22 22 -1 22 23 23 -1 23 24 24 -1 24 25 25 -1 25 26 26 -1 26 27 27 -1 27 28 28 -1 28 29 29 -1 29 30 30 -1 30 31 31 -1 31 32 32 -1 32 33 33 -1 33 34 34 -1 34 35 35 -1 35 36 36 -1 36 37 37 -1 37 38 38 -1 38 39 39 -1 39 40 40 -1 40 41 41 -1 41 42 42 -1 42 43 43 -1 43 44 44 -1 44 45 45 -1 45 46 46 -1 46 47 47 -1 47 48 48 -1 48 1 1 -1 1 0 50 -1 1 50 49 -1 0 3 52 -1 0 52 50 -1 3 4 53 -1 3 53 52 -1 4 5 54 -1 4 54 53 -1 5 6 55 -1 5 55 54 -1 6 7 56 -1 6 56 55 -1 7 8 57 -1 7 57 56 -1 8 9 58 -1 8 58 57 -1 9 10 59 -1 9 59 58 -1 10 11 60 -1 10 60 59 -1 11 12 61 -1 11 61 60 -1 12 13 62 -1 12 62 61 -1 13 14 63 -1 13 63 62 -1 14 15 64 -1 14 64 63 -1 15 16 65 -1 15 65 64 -1 16 17 66 -1 16 66 65 -1 17 18 67 -1 17 67 66 -1 18 19 68 -1 18 68 67 -1 19 20 69 -1 19 69 68 -1 20 21 70 -1 20 70 69 -1 21 22 71 -1 21 71 70 -1 22 23 72 -1 22 72 71 -1 23 24 73 -1 23 73 72 -1 24 25 74 -1 24 74 73 -1 25 26 75 -1 25 75 74 -1 26 27 76 -1 26 76 75 -1 27 28 77 -1 27 77 76 -1 28 29 78 -1 28 78 77 -1 29 30 79 -1 29 79 78 -1 30 31 80 -1 30 80 79 -1 31 32 81 -1 31 81 80 -1 32 33 82 -1 32 82 81 -1 33 34 83 -1 33 83 82 -1 34 35 84 -1 34 84 83 -1 35 36 85 -1 35 85 84 -1 36 37 86 -1 36 86 85 -1 37 38 87 -1 37 87 86 -1 38 39 88 -1 38 88 87 -1 39 40 89 -1 39 89 88 -1 40 41 90 -1 40 90 89 -1 41 42 91 -1 41 91 90 -1 42 43 92 -1 42 92 91 -1 43 44 93 -1 43 93 92 -1 44 45 94 -1 44 94 93 -1 45 46 95 -1 45 95 94 -1 46 47 96 -1 46 96 95 -1 47 48 97 -1 47 97 96 -1 48 1 49 -1 48 49 97 -1 49 50 50 -1 50 52 52 -1 52 53 53 -1 53 54 54 -1 54 55 55 -1 55 56 56 -1 56 57 57 -1 57 58 58 -1 58 59 59 -1 59 60 60 -1 60 61 61 -1 61 62 62 -1 62 63 63 -1 63 64 64 -1 64 65 65 -1 65 66 66 -1 66 67 67 -1 67 68 68 -1 68 69 69 -1 69 70 70 -1 70 71 71 -1 71 72 72 -1 72 73 73 -1 73 74 74 -1 74 75 75 -1 75 76 76 -1 76 77 77 -1 77 78 78 -1 78 79 79 -1 79 80 80 -1 80 81 81 -1 81 82 82 -1 82 83 83 -1 83 84 84 -1 84 85 85 -1 85 86 86 -1 86 87 87 -1 87 88 88 -1 88 89 89 -1 89 90 90 -1 90 91 91 -1 91 92 92 -1 92 93 93 -1 93 94 94 -1 94 95 95 -1 95 96 96 -1 96 97 97 -1 97 49 49" colorPerVertex="false" colorIndex="1 1 1 1 1 1 1 1 1 1 1 1 1 1 1 1 1 1 1 1 1 1 1 1 1 1 1 1 1 1 1 1 1 1 1 1 1 1 1 1 1 1 1 1 1 1 1 1 1 1 1 1 1 1 1 1 1 1 1 1 1 1 1 1 1 1 1 1 1 1 1 1 1 1 1 1 1 1 1 1 1 1 1 1 1 1 1 1 1 1 1 1 1 1 1 1 1 1 1 1 1 1 1 1 1 1 1 1 1 1 1 1 1 1 1 1 1 1 1 1 1 1 1 1 1 1 1 1 1 1 1 1 1 1 1 1 1 1 1 1 1 1 1 1 1 1 1 1 1 1 1 1 1 1 1 1 1 1 1 1 1 1 1 1 1 1 1 1 1 1 1 1 1 1 1 1 1 1 1 1 1 1 1 1 1 1 1 1 1 1 1 1 1 1 1 1 1 1 1 1 1 1 1 1 1 1 1 1 1 1 1 1 1 1 1 1 1 1 1 1 1 1 1 1 1 1 1 1 1 1 1 1 1 1 1 1 1 1 1 1 1 1 1 1 1 1 1 1 1 1 1 1 1 1 1 1 1 1 1 1 1 1 1 1 1 1 1 1 1 1 1 1 1 1 1 1 1 1 1 1 1 1 1 1 1 1 1 1 " normalPerVertex="false">
        <Coordinate point="-27.6516 -16 13.9401 -28.5 -16 14 -28.5 -16 7 -26.8177 -16 13.7615 -26.0126 -16 13.4672 -25.25 -16 13.0622 -24.5431 -16 12.5535 -23.9038 -16 11.9497 -23.3432 -16 11.2613 -22.8708 -16 10.5 -22.4948 -16 9.6788 -22.2215 -16 8.8117 -22.0556 -16 7.9137 -22 -16 7 -22.0556 -16 6.0863 -22.2215 -16 5.1883 -22.4948 -16 4.3212 -22.8708 -16 3.5 -23.3432 -16 2.7387 -23.9038 -16 2.0503 -24.5431 -16 1.4465 -25.25 -16 0.9378 -26.0126 -16 0.5328 -26.8177 -16 0.2385 -27.6516 -16 0.0599 -28.5 -16 0 -29.3484 -16 0.0599 -30.1823 -16 0.2385 -30.9874 -16 0.5328 -31.75 -16 0.9378 -32.4569 -16 1.4465 -33.0962 -16 2.0503 -33.6568 -16 2.7387 -34.1292 -16 3.5 -34.5052 -16 4.3212 -34.7785 -16 5.1883 -34.9444 -16 6.0863 -35 -16 7 -34.9444 -16 7.9137 -34.7785 -16 8.8117 -34.5052 -16 9.6788 -34.1292 -16 10.5 -33.6568 -16 11.2613 -33.0962 -16 11.9497 -32.4569 -16 12.5535 -31.75 -16 13.0622 -30.9874 -16 13.4672 -30.1823 -16 13.7615 -29.3484 -16 13.9401 -28.5 -10 14 -27.6516 -10 13.9401 -28.5 -10 7 -26.8177 -10 13.7615 -26.0126 -10 13.4672 -25.25 -10 13.0622 -24.5431 -10 12.5535 -23.9038 -10 11.9497 -23.3432 -10 11.2613 -22.8708 -10 10.5 -22.4948 -10 9.6788 -22.2215 -10 8.8117 -22.0556 -10 7.9137 -22 -10 7 -22.0556 -10 6.0863 -22.2215 -10 5.1883 -22.4948 -10 4.3212 -22.8708 -10 3.5 -23.3432 -10 2.7387 -23.9038 -10 2.0503 -24.5431 -10 1.4465 -25.25 -10 0.9378 -26.0126 -10 0.5328 -26.8177 -10 0.2385 -27.6516 -10 0.0599 -28.5 -10 0 -29.3484 -10 0.0599 -30.1823 -10 0.2385 -30.9874 -10 0.5328 -31.75 -10 0.9378 -32.4569 -10 1.4465 -33.0962 -10 2.0503 -33.6568 -10 2.7387 -34.1292 -10 3.5 -34.5052 -10 4.3212 -34.7785 -10 5.1883 -34.9444 -10 6.0863 -35 -10 7 -34.9444 -10 7.9137 -34.7785 -10 8.8117 -34.5052 -10 9.6788 -34.1292 -10 10.5 -33.6568 -10 11.2613 -33.0962 -10 11.9497 -32.4569 -10 12.5535 -31.75 -10 13.0622 -30.9874 -10 13.4672 -30.1823 -10 13.7615 -29.3484 -10 13.9401"/>
        <Color color="0.91373 0.11373 0.17647 0.16863 0.18039 0.19216 "/>
      </IndexedFaceSet>
    </Shape>
    <Shape>
      <IndexedFaceSet coordIndex="0 1 2 -1 3 0 2 -1 4 3 2 -1 5 4 2 -1 6 5 2 -1 7 6 2 -1 8 7 2 -1 9 8 2 -1 10 9 2 -1 11 10 2 -1 12 11 2 -1 13 12 2 -1 14 13 2 -1 15 14 2 -1 16 15 2 -1 17 16 2 -1 18 17 2 -1 19 18 2 -1 20 19 2 -1 21 20 2 -1 22 21 2 -1 23 22 2 -1 24 23 2 -1 25 24 2 -1 26 25 2 -1 27 26 2 -1 28 27 2 -1 29 28 2 -1 30 29 2 -1 31 30 2 -1 32 31 2 -1 33 32 2 -1 34 33 2 -1 35 34 2 -1 36 35 2 -1 37 36 2 -1 38 37 2 -1 39 38 2 -1 40 39 2 -1 41 40 2 -1 42 41 2 -1 43 42 2 -1 44 43 2 -1 45 44 2 -1 46 45 2 -1 47 46 2 -1 48 47 2 -1 1 48 2 -1 49 50 51 -1 50 52 51 -1 52 53 51 -1 53 54 51 -1 54 55 51 -1 55 56 51 -1 56 57 51 -1 57 58 51 -1 58 59 51 -1 59 60 51 -1 60 61 51 -1 61 62 51 -1 62 63 51 -1 63 64 51 -1 64 65 51 -1 65 66 51 -1 66 67 51 -1 67 68 51 -1 68 69 51 -1 69 70 51 -1 70 71 51 -1 71 72 51 -1 72 73 51 -1 73 74 51 -1 74 75 51 -1 75 76 51 -1 76 77 51 -1 77 78 51 -1 78 79 51 -1 79 80 51 -1 80 81 51 -1 81 82 51 -1 82 83 51 -1 83 84 51 -1 84 85 51 -1 85 86 51 -1 86 87 51 -1 87 88 51 -1 88 89 51 -1 89 90 51 -1 90 91 51 -1 91 92 51 -1 92 93 51 -1 93 94 51 -1 94 95 51 -1 95 96 51 -1 96 97 51 -1 97 49 51 -1 1 0 0 -1 0 3 3 -1 3 4 4 -1 4 5 5 -1 5 6 6 -1 6 7 7 -1 7 8 8 -1 8 9 9 -1 9 10 10 -1 10 11 11 -1 11 12 12 -1 12 13 13 -1 13 14 14 -1 14 15 15 -1 15 16 16 -1 16 17 17 -1 17 18 18 -1 18 19 19 -1 19 20 20 -1 20 21 21 -1 21 22 22 -1 22 23 23 -1 23 24 24 -1 24 25 25 -1 25 26 26 -1 26 27 27 -1 27 28 28 -1 28 29 29 -1 29 30 30 -1 30 31 31 -1 31 32 32 -1 32 33 33 -1 33 34 34 -1 34 35 35 -1 35 36 36 -1 36 37 37 -1 37 38 38 -1 38 39 39 -1 39 40 40 -1 40 41 41 -1 41 42 42 -1 42 43 43 -1 43 44 44 -1 44 45 45 -1 45 46 46 -1 46 47 47 -1 47 48 48 -1 48 1 1 -1 1 0 50 -1 1 50 49 -1 0 3 52 -1 0 52 50 -1 3 4 53 -1 3 53 52 -1 4 5 54 -1 4 54 53 -1 5 6 55 -1 5 55 54 -1 6 7 56 -1 6 56 55 -1 7 8 57 -1 7 57 56 -1 8 9 58 -1 8 58 57 -1 9 10 59 -1 9 59 58 -1 10 11 60 -1 10 60 59 -1 11 12 61 -1 11 61 60 -1 12 13 62 -1 12 62 61 -1 13 14 63 -1 13 63 62 -1 14 15 64 -1 14 64 63 -1 15 16 65 -1 15 65 64 -1 16 17 66 -1 16 66 65 -1 17 18 67 -1 17 67 66 -1 18 19 68 -1 18 68 67 -1 19 20 69 -1 19 69 68 -1 20 21 70 -1 20 70 69 -1 21 22 71 -1 21 71 70 -1 22 23 72 -1 22 72 71 -1 23 24 73 -1 23 73 72 -1 24 25 74 -1 24 74 73 -1 25 26 75 -1 25 75 74 -1 26 27 76 -1 26 76 75 -1 27 28 77 -1 27 77 76 -1 28 29 78 -1 28 78 77 -1 29 30 79 -1 29 79 78 -1 30 31 80 -1 30 80 79 -1 31 32 81 -1 31 81 80 -1 32 33 82 -1 32 82 81 -1 33 34 83 -1 33 83 82 -1 34 35 84 -1 34 84 83 -1 35 36 85 -1 35 85 84 -1 36 37 86 -1 36 86 85 -1 37 38 87 -1 37 87 86 -1 38 39 88 -1 38 88 87 -1 39 40 89 -1 39 89 88 -1 40 41 90 -1 40 90 89 -1 41 42 91 -1 41 91 90 -1 42 43 92 -1 42 92 91 -1 43 44 93 -1 43 93 92 -1 44 45 94 -1 44 94 93 -1 45 46 95 -1 45 95 94 -1 46 47 96 -1 46 96 95 -1 47 48 97 -1 47 97 96 -1 48 1 49 -1 48 49 97 -1 49 50 50 -1 50 52 52 -1 52 53 53 -1 53 54 54 -1 54 55 55 -1 55 56 56 -1 56 57 57 -1 57 58 58 -1 58 59 59 -1 59 60 60 -1 60 61 61 -1 61 62 62 -1 62 63 63 -1 63 64 64 -1 64 65 65 -1 65 66 66 -1 66 67 67 -1 67 68 68 -1 68 69 69 -1 69 70 70 -1 70 71 71 -1 71 72 72 -1 72 73 73 -1 73 74 74 -1 74 75 75 -1 75 76 76 -1 76 77 77 -1 77 78 78 -1 78 79 79 -1 79 80 80 -1 80 81 81 -1 81 82 82 -1 82 83 83 -1 83 84 84 -1 84 85 85 -1 85 86 86 -1 86 87 87 -1 87 88 88 -1 88 89 89 -1 89 90 90 -1 90 91 91 -1 91 92 92 -1 92 93 93 -1 93 94 94 -1 94 95 95 -1 95 96 96 -1 96 97 97 -1 97 49 49" colorPerVertex="false" colorIndex="1 1 1 1 1 1 1 1 1 1 1 1 1 1 1 1 1 1 1 1 1 1 1 1 1 1 1 1 1 1 1 1 1 1 1 1 1 1 1 1 1 1 1 1 1 1 1 1 1 1 1 1 1 1 1 1 1 1 1 1 1 1 1 1 1 1 1 1 1 1 1 1 1 1 1 1 1 1 1 1 1 1 1 1 1 1 1 1 1 1 1 1 1 1 1 1 1 1 1 1 1 1 1 1 1 1 1 1 1 1 1 1 1 1 1 1 1 1 1 1 1 1 1 1 1 1 1 1 1 1 1 1 1 1 1 1 1 1 1 1 1 1 1 1 1 1 1 1 1 1 1 1 1 1 1 1 1 1 1 1 1 1 1 1 1 1 1 1 1 1 1 1 1 1 1 1 1 1 1 1 1 1 1 1 1 1 1 1 1 1 1 1 1 1 1 1 1 1 1 1 1 1 1 1 1 1 1 1 1 1 1 1 1 1 1 1 1 1 1 1 1 1 1 1 1 1 1 1 1 1 1 1 1 1 1 1 1 1 1 1 1 1 1 1 1 1 1 1 1 1 1 1 1 1 1 1 1 1 1 1 1 1 1 1 1 1 1 1 1 1 1 1 1 1 1 1 1 1 1 1 1 1 1 1 1 1 1 1 " normalPerVertex="false">
        <Coordinate point="17.3484 -16 13.9401 16.5 -16 14 16.5 -16 7 18.1823 -16 13.7615 18.9874 -16 13.4672 19.75 -16 13.0622 20.4569 -16 12.5535 21.0962 -16 11.9497 21.6568 -16 11.2613 22.1292 -16 10.5 22.5052 -16 9.6788 22.7785 -16 8.8117 22.9444 -16 7.9137 23 -16 7 22.9444 -16 6.0863 22.7785 -16 5.1883 22.5052 -16 4.3212 22.1292 -16 3.5 21.6568 -16 2.7387 21.0962 -16 2.0503 20.4569 -16 1.4465 19.75 -16 0.9378 18.9874 -16 0.5328 18.1823 -16 0.2385 17.3484 -16 0.0599 16.5 -16 0 15.6516 -16 0.0599 14.8177 -16 0.2385 14.0126 -16 0.5328 13.25 -16 0.9378 12.5431 -16 1.4465 11.9038 -16 2.0503 11.3432 -16 2.7387 10.8708 -16 3.5 10.4948 -16 4.3212 10.2215 -16 5.1883 10.0556 -16 6.0863 10 -16 7 10.0556 -16 7.9137 10.2215 -16 8.8117 10.4948 -16 9.6788 10.8708 -16 10.5 11.3432 -16 11.2613 11.9038 -16 11.9497 12.5431 -16 12.5535 13.25 -16 13.0622 14.0126 -16 13.4672 14.8177 -16 13.7615 15.6516 -16 13.9401 16.5 -10 14 17.3484 -10 13.9401 16.5 -10 7 18.1823 -10 13.7615 18.9874 -10 13.4672 19.75 -10 13.0622 20.4569 -10 12.5535 21.0962 -10 11.9497 21.6568 -10 11.2613 22.1292 -10 10.5 22.5052 -10 9.6788 22.7785 -10 8.8117 22.9444 -10 7.9137 23 -10 7 22.9444 -10 6.0863 22.7785 -10 5.1883 22.5052 -10 4.3212 22.1292 -10 3.5 21.6568 -10 2.7387 21.0962 -10 2.0503 20.4569 -10 1.4465 19.75 -10 0.9378 18.9874 -10 0.5328 18.1823 -10 0.2385 17.3484 -10 0.0599 16.5 -10 0 15.6516 -10 0.0599 14.8177 -10 0.2385 14.0126 -10 0.5328 13.25 -10 0.9378 12.5431 -10 1.4465 11.9038 -10 2.0503 11.3432 -10 2.7387 10.8708 -10 3.5 10.4948 -10 4.3212 10.2215 -10 5.1883 10.0556 -10 6.0863 10 -10 7 10.0556 -10 7.9137 10.2215 -10 8.8117 10.4948 -10 9.6788 10.8708 -10 10.5 11.3432 -10 11.2613 11.9038 -10 11.9497 12.5431 -10 12.5535 13.25 -10 13.0622 14.0126 -10 13.4672 14.8177 -10 13.7615 15.6516 -10 13.9401"/>
        <Color color="0.91373 0.11373 0.17647 0.16863 0.18039 0.19216 "/>
      </IndexedFaceSet>
    </Shape>
    <Shape>
      <IndexedFaceSet coordIndex="0 1 2 -1 1 3 2 -1 4 5 6 -1 5 7 6 -1 4 6 2 -1 6 0 2 -1 7 5 1 -1 5 3 1 -1 6 7 0 -1 7 1 0 -1 2 3 4 -1 3 5 4" colorPerVertex="false" colorIndex="1 1 1 1 1 1 1 1 1 1 1 1 " normalPerVertex="false">
        <Coordinate point="-18 -12 31 -18 -12 22 -18 18 31 -18 18 22 -20 18 31 -20 18 22 -20 -12 31 -20 -12 22"/>
        <Color color="0.91373 0.11373 0.17647 0 0.62353 0.84314 "/>
      </IndexedFaceSet>
    </Shape>
  </Scene>
</X3D>
